# xmcd
#
# Track frame offsets: 
#        750
#        20640
#        40490
#        55307
#        70110
#        86727
#
# Disc length: 1378 seconds
#
# Revision: 1
# Processed by: cddbd v1.5.2PL0 Copyright (c) Steve Scherf et al.
# Submitted via: ExactAudioCopy v1.0b3
#
DISCID=4e055806
DTITLE=R. Kelly - Fiesta
DYEAR=2001
DGENRE=R&B
TTITLE0=Fiesta Remix feat. Jay-Z (Clean)
TTITLE1=Fiesta Remix feat. Jay-Z (Street)
TTITLE2=Fiesta (LP-Version Clean)
TTITLE3=Fiesta (LP-Version Street)
TTITLE4=True Baller (Clean)
TTITLE5=True Baller (Street)
EXTD=
EXTT0=
EXTT1=
EXTT2=
EXTT3=
EXTT4=
EXTT5=
PLAYORDER=
